<svg xmlns="http://www.w3.org/2000/svg" width="320" height="140" viewBox="0 0 320 140" shape-rendering="crispEdges">
  <rect width="320" height="140" fill="#0f1118"/>
  <rect y="16" width="320" height="92" fill="#1a202a"/>
  <rect y="108" width="320" height="32" fill="#12141c"/>
  <rect y="52" width="320" height="2" fill="#3a4252"/>
  <rect y="88" width="320" height="2" fill="#3a4252"/>
  <rect x="0" y="16" width="18" height="92" fill="#202838"/>
  <rect x="302" y="16" width="18" height="92" fill="#202838"/>
  <rect x="24" y="26" width="272" height="70" fill="#252c39"/>
  <rect x="28" y="30" width="264" height="62" fill="#31394a"/>
  <rect x="48" y="30" width="2" height="62" fill="#4c5569"/>
  <rect x="94" y="30" width="2" height="62" fill="#4c5569"/>
  <rect x="140" y="30" width="2" height="62" fill="#4c5569"/>
  <rect x="186" y="30" width="2" height="62" fill="#4c5569"/>
  <rect x="232" y="30" width="2" height="62" fill="#4c5569"/>
  <rect x="278" y="30" width="2" height="62" fill="#4c5569"/>
  <rect x="28" y="44" width="264" height="2" fill="#58627a"/>
  <rect x="28" y="62" width="264" height="2" fill="#58627a"/>
  <rect x="28" y="80" width="264" height="2" fill="#58627a"/>
  <rect x="132" y="10" width="56" height="6" fill="#7a643a"/>
  <rect x="138" y="6" width="44" height="4" fill="#b08c4f"/>
</svg>
